{"title":"Baahubali (2015 ) Hindi Dubbed - Untouched CAM - AC3 - TeamDBR E","uid":12110014,"size":741700183,"categoryP":"video","categoryS":"movies","magnet":"?xt=urn:btih:ad8e41855891994176e6e83433cd5bfca272807b&amp;dn=Baahubali+%282015+%29+Hindi+Dubbed+-+Untouched+CAM+-+AC3+-+TeamDBR+E&amp;tr=udp%3A%2F%2Ftracker.openbittorrent.com%3A80&amp;tr=udp%3A%2F%2Fopen.demonii.com%3A1337&amp;tr=udp%3A%2F%2Ftracker.coppersurfer.tk%3A6969&amp;tr=udp%3A%2F%2Fexodus.desync.com%3A6969","seeders":8,"leechers":2,"uploader":"SS132203","files":2,"time":1436547398,"description":"Baahubali (2015 ) Hindi Dubbed - Untouched CAM - AC3 - TeamDBR Exclusive\n &lt;a href=&quot;\nhttp://imgsparrow.co/image/Ba&quot; rel=&quot;nofollow&quot; target=&quot;_NEW&quot;&gt;\nhttp://imgsparrow.co/image/Ba&lt;/a&gt;\n &lt;a href=&quot;\nhttp://imgsparrow.co/image/9b&quot; rel=&quot;nofollow&quot; target=&quot;_NEW&quot;&gt;\nhttp://imgsparrow.co/image/9b&lt;/a&gt;\n\nInfo : - \n\nFormat                      : Matroska\nFormat version              : Version 4 / Version 2\nFile size                   : 707 MiB\nDuration                    : 2h 29mn\nOverall bit rate mode       : Variable\nOverall bit rate            : 664 Kbps\nEncoded date                : UTC 2015-07-10 14:14:16\nWriting application         : mkvmerge v8.1.0 ('Psychedelic Postcard') 64bit\nWriting library             : libebml v1.3.1 + libmatroska v1.4.2\nDURATION                    : 02:29:00.936000000\nNUMBER_OF_FRAMES            : 372539\nNUMBER_OF_BYTES             : 143054976\n_STATISTICS_WRITING_APP     : mkvmerge v8.1.0 ('Psychedelic Postcard') 64bit\n_STATISTICS_WRITING_DATE_UT : 2015-07-10 14:14:16\n_STATISTICS_TAGS            : BPS DURATION NUMBER_OF_FRAMES NUMBER_OF_BYTES\n\nVideo\nID                          : 1\nFormat                      : MPEG Video\nFormat version              : Version 2\nFormat profile              : Main@Main\nFormat settings, BVOP       : Yes\nFormat settings, Matrix     : Default\nFormat settings, GOP        : M=3, N=13\nCodec ID                    : V_MPEG2\nCodec ID/Info               : MPEG 1 or 2 Video\nDuration                    : 2h 29mn\nBit rate mode               : Variable\nBit rate                    : 522 Kbps\nMaximum bit rate            : 9 672 Kbps\nWidth                       : 352 pixels\nHeight                      : 288 pixels\nDisplay aspect ratio        : 4:3\nFrame rate mode             : Constant\nFrame rate                  : 25.000 fps\nStandard                    : PAL\nColor space                 : YUV\nChroma subsampling          : 4:2:0\nBit depth                   : 8 bits\nScan type                   : Progressive\nCompression mode            : Lossy\nBits/(Pixel*Frame)          : 0.206\nTime code of first frame    : 00:00:00:00\nTime code source            : Group of pictures header\nGOP, Open/Closed            : Open\nStream size                 : 557 MiB (79%)\nDefault                     : Yes\nForced                      : No\n\nAudio\nID                          : 2\nFormat                      : MPEG Audio\nFormat version              : Version 1\nFormat profile              : Layer 2\nCodec ID                    : A_MPEG/L2\nCodec ID/Hint               : MP2\nDuration                    : 2h 29mn\nBit rate mode               : Constant\nBit rate                    : 128 Kbps\nChannel(s)                  : 2 channels\nSampling rate               : 48.0 KHz\nCompression mode            : Lossy\nDelay relative to video     : -600ms\nStream size                 : 136 MiB (19%)\nDefault                     : Yes\nForced                      : No\n\nScreens : - \n &lt;a href=&quot;\nhttp://imgsparrow.co/image/Bf&quot; rel=&quot;nofollow&quot; target=&quot;_NEW&quot;&gt;\nhttp://imgsparrow.co/image/Bf&lt;/a&gt; &lt;a href=&quot;\nhttp://imgsparrow.co/image/BI&quot; rel=&quot;nofollow&quot; target=&quot;_NEW&quot;&gt;\nhttp://imgsparrow.co/image/BI&lt;/a&gt; &lt;a href=&quot;\nhttp://imgsparrow.co/image/BP&quot; rel=&quot;nofollow&quot; target=&quot;_NEW&quot;&gt;\nhttp://imgsparrow.co/image/BP&lt;/a&gt; &lt;a href=&quot;\nhttp://imgsparrow.co/image/BW&quot; rel=&quot;nofollow&quot; target=&quot;_NEW&quot;&gt;\nhttp://imgsparrow.co/image/BW&lt;/a&gt; &lt;a href=&quot;\nhttp://imgsparrow.co/image/BX&quot; rel=&quot;nofollow&quot; target=&quot;_NEW&quot;&gt;\nhttp://imgsparrow.co/image/BX&lt;/a&gt; &lt;a href=&quot;\nhttp://imgsparrow.co/image/BY&quot; rel=&quot;nofollow&quot; target=&quot;_NEW&quot;&gt;\nhttp://imgsparrow.co/image/BY&lt;/a&gt;\n &lt;a href=&quot;\nhttp://imgsparrow.co/image/N2&quot; rel=&quot;nofollow&quot; target=&quot;_NEW&quot;&gt;\nhttp://imgsparrow.co/image/N2&lt;/a&gt;","torrent":{"xt":"urn:btih:ad8e41855891994176e6e83433cd5bfca272807b","amp;dn":"Baahubali+%282015+%29+Hindi+Dubbed+-+Untouched+CAM+-+AC3+-+TeamDBR+E","amp;tr":["udp%3A%2F%2Ftracker.openbittorrent.com%3A80","udp%3A%2F%2Fopen.demonii.com%3A1337","udp%3A%2F%2Ftracker.coppersurfer.tk%3A6969","udp%3A%2F%2Fexodus.desync.com%3A6969"],"infoHash":"ad8e41855891994176e6e83433cd5bfca272807b","infoHashBuffer":{"type":"Buffer","data":[173,142,65,133,88,145,153,65,118,230,232,52,51,205,91,252,162,114,128,123]},"announce":[],"urlList":[]}}